<svg xmlns="http://www.w3.org/2000/svg" viewBox="0 0 512 512">
  <rect width="512" height="512" fill="#121113"/>
  <g fill="#f0b35e">
    <ellipse cx="145" cy="228" rx="38" ry="46" transform="rotate(-18 145 228)"/>
    <ellipse cx="216" cy="168" rx="40" ry="49" transform="rotate(-7 216 168)"/>
    <ellipse cx="296" cy="168" rx="40" ry="49" transform="rotate(7 296 168)"/>
    <ellipse cx="367" cy="228" rx="38" ry="46" transform="rotate(18 367 228)"/>
    <path d="M256 250c-52 0-104 47-104 96 0 30 22 50 52 50 19 0 33-8 52-8s33 8 52 8c30 0 52-20 52-50 0-49-52-96-104-96z"/>
  </g>
</svg>
